# xmcd
#
# Track frame offsets:
#	150
#	31561
#	43702
#	55533
#	65882
#	83815
#	99387
#	118499
#	134082
#	145421
#	168459
#	183006
#	193981
#	216394
#	232534
#	245089
#	258815
#	271350
#	283708
#	297201
#	315840
#	329040
#	343319
#
# Disc length: 4731 seconds
#
# Revision: 1
# Processed by: cddbd v1.5.1PL0 Copyright (c) Steve Scherf et al.
# Submitted via: audiograbber 1.83.01
#
DISCID=66127917
DTITLE=Dan Barrett - Dan 2004 - "plenty for all"
DYEAR=2004
DGENRE=
TTITLE0=And you will know us by the trail of the dead - [title unknown]
TTITLE1=The Black Keys - act nice and gentle
TTITLE2=Blood Brothers - trash flavored trash
TTITLE3=Blumfeld - jet set
TTITLE4=Captain Beefheart - moonlight on vermont
TTITLE5=John Coltrane - naima (alt. version 2)
TTITLE6=Constantines - justice
TTITLE7=Dillinger Escape Plan - setting fire to sleeping giants
TTITLE8=Futureheads - decent days and nights
TTITLE9=Al Green - love and happiness
TTITLE10=Hot Snakes - plenty for all
TTITLE11=Ivory Springer - my best job
TTITLE12=Karate - alingual
TTITLE13=PW Long - wreck
TTITLE14=Low - will the night (demo)
TTITLE15=Mastodon - iron tusk
TTITLE16=Thelonious Monk - i mean you
TTITLE17=The New Year - chinese handcuffs
TTITLE18=The Police - can't stand losing you
TTITLE19=Refused - liberation frequency
TTITLE20=Django Reinhardt - honeysuckle rose
TTITLE21=The Souls - bleeding gums
TTITLE22=Steely Dan - monkey in your soul
EXTD=
EXTT0=
EXTT1=
EXTT2=
EXTT3=
EXTT4=
EXTT5=
EXTT6=
EXTT7=
EXTT8=
EXTT9=
EXTT10=
EXTT11=
EXTT12=
EXTT13=
EXTT14=
EXTT15=
EXTT16=
EXTT17=
EXTT18=
EXTT19=
EXTT20=
EXTT21=
EXTT22=
PLAYORDER=
